<svg preserveAspectRatio="none" overflow="visible" style="display: block;" width="24" height="24" viewBox="0 0 24 24" fill="none" xmlns="http://www.w3.org/2000/svg">
<g id="pinhead:chainsaw">
<path id="Vector" d="M22.256 5.456L21.6 4.8L21.92 4.352C21.952 4.304 21.984 4.272 22.016 4.224C22.2677 3.93643 22.4044 3.56612 22.4 3.184C22.3957 2.88542 22.3079 2.594 22.1465 2.34273C21.9852 2.09146 21.7567 1.89035 21.487 1.76216C21.2173 1.63397 20.9171 1.58381 20.6204 1.61736C20.3237 1.65091 20.0423 1.76683 19.808 1.952C19.76 1.984 19.712 2.032 19.664 2.064L19.2 2.4L18.576 1.776C18.4742 1.66567 18.3327 1.60032 18.1826 1.59431C18.0326 1.58831 17.8863 1.64216 17.776 1.744C17.6657 1.84584 17.6003 1.98734 17.5943 2.13737C17.5883 2.2874 17.6422 2.43367 17.744 2.544L18.416 3.216L17.616 4.016L16.992 3.392C16.9416 3.33737 16.8809 3.29321 16.8134 3.26203C16.7459 3.23086 16.6729 3.21329 16.5986 3.21031C16.5243 3.20734 16.4502 3.21903 16.3804 3.24472C16.3107 3.2704 16.2466 3.30957 16.192 3.36C16.1374 3.41043 16.0932 3.47112 16.062 3.53862C16.0309 3.60611 16.0133 3.67909 16.0103 3.75337C16.0043 3.9034 16.0582 4.04967 16.16 4.16L16.8 4.8L16 5.6L15.392 4.992C15.2923 4.87955 15.152 4.81132 15.0019 4.80231C14.8519 4.79331 14.7045 4.84428 14.592 4.944C14.4795 5.04372 14.4113 5.18403 14.4023 5.33406C14.3933 5.48409 14.4443 5.63155 14.544 5.744L14.592 5.792L15.2 6.4L14.4 7.2L13.776 6.576C13.6742 6.46567 13.5327 6.40032 13.3826 6.39431C13.2326 6.38831 13.0863 6.44216 12.976 6.544C12.8657 6.64584 12.8003 6.78734 12.7943 6.93737C12.7883 7.0874 12.8422 7.23367 12.944 7.344L13.6 8L12.8 8.8L12.224 8.224C12.1306 8.10518 11.9939 8.02832 11.8439 8.01032C11.6939 7.99231 11.5428 8.03464 11.424 8.128C11.3052 8.22136 11.2283 8.35809 11.2103 8.50812C11.1923 8.65815 11.2346 8.80918 11.328 8.928L12.016 9.6L11.2 10.4L10.576 9.776C10.4695 9.67534 10.331 9.61537 10.1847 9.60659C10.0385 9.59782 9.89376 9.6408 9.776 9.728C9.67236 9.83286 9.61036 9.97181 9.60153 10.119C9.5927 10.2661 9.63765 10.4115 9.728 10.528L9.76 10.56L10.4 11.2L9.6 12L8.96 11.36C8.85082 11.2599 8.7081 11.2044 8.56 11.2044C8.4119 11.2044 8.26918 11.2599 8.16 11.36L10 13.184L19.344 3.856L20 3.2H20.8V4L20.144 4.656L10.8 14L12.64 15.84C12.7436 15.7326 12.8015 15.5892 12.8015 15.44C12.8015 15.2908 12.7436 15.1474 12.64 15.04L12.624 15.024L12 14.4L12.8 13.6L13.408 14.208C13.5077 14.3205 13.648 14.3887 13.7981 14.3977C13.9481 14.4067 14.0955 14.3557 14.208 14.256C14.3205 14.1563 14.3887 14.016 14.3977 13.8659C14.4067 13.7159 14.3557 13.5685 14.256 13.456L13.6 12.8L14.4 12L15.008 12.608C15.1077 12.7205 15.248 12.7887 15.3981 12.7977C15.5481 12.8067 15.6955 12.7557 15.808 12.656C15.9205 12.5563 15.9887 12.416 15.9977 12.2659C16.0067 12.1159 15.9557 11.9685 15.856 11.856L15.824 11.824L15.2 11.2L16 10.4L16.608 11.008C16.6599 11.0675 16.7238 11.1154 16.7955 11.1485C16.8672 11.1816 16.945 11.1991 17.024 11.2C17.1359 11.2016 17.2458 11.1697 17.3394 11.1083C17.433 11.0468 17.506 10.9588 17.5491 10.8554C17.5921 10.7521 17.6032 10.6382 17.5809 10.5285C17.5586 10.4188 17.504 10.3183 17.424 10.24L16.8 9.6L17.6 8.8L18.208 9.408C18.3077 9.52045 18.448 9.58868 18.5981 9.59769C18.7481 9.60669 18.8955 9.55572 19.008 9.456C19.1205 9.35628 19.1887 9.21597 19.1977 9.06594C19.2067 8.91591 19.1557 8.76845 19.056 8.656L19.008 8.608L18.4 8L19.2 7.2L19.808 7.808C19.9077 7.92045 20.048 7.98868 20.1981 7.99769C20.3481 8.00669 20.4955 7.95572 20.608 7.856C20.7205 7.75628 20.7887 7.61597 20.7977 7.46594C20.8067 7.31591 20.7557 7.16845 20.656 7.056L20.624 7.024L20 6.4L20.8 5.6L21.408 6.208C21.5077 6.32045 21.648 6.38868 21.7981 6.39768C21.9481 6.40669 22.0955 6.35572 22.208 6.256C22.3205 6.15628 22.3887 6.01597 22.3977 5.86594C22.4067 5.71591 22.3557 5.56845 22.256 5.456ZM7.024 12.672C6.224 11.872 5.824 11.2 4.8 11.2H2.4C2.18783 11.2 1.98434 11.2843 1.83431 11.4343C1.68429 11.5843 1.6 11.7878 1.6 12V16.8C1.56004 17.6715 1.84513 18.5268 2.4 19.2L3.712 20.496C4.3453 21.2072 5.23461 21.6385 6.18522 21.6955C7.13582 21.7525 8.07028 21.4305 8.784 20.8L12 17.6L7.024 12.672ZM5.6 16L3.616 17.984C3.35874 17.6416 3.21346 17.2281 3.2 16.8V12.8H4.8C5.01234 12.8316 5.20582 12.9397 5.344 13.104C5.44348 13.183 5.52081 13.2864 5.56848 13.4042C5.61614 13.5219 5.63251 13.65 5.616 13.776L5.6 16Z" fill="#F8BD00"/>
</g>
</svg>
